# xmcd
# 
# Track frame offsets:
#     150
#     21075
#     46920
#     67920
# 
# Disc length: 1247
# 
# Revision: 1
# Processed by: cddbd v1.5.2PL0 Copyright (c) Steve Scherf et al.
# Submitted via: BonkEnc v1.0.5
# 
DISCID=2804dd04
DTITLE=Kinki Kids - 全部抱きしめて/青の時代
DYEAR=1998
DGENRE=Pop
TTITLE0=全部抱きしめて
TTITLE1=青の時代
TTITLE2=全部抱きしめて（オリジナル･カラオケ）
TTITLE3=青の時代（オリジナル･カラオケ）
EXTD=YEAR: 1998 ID3G: 13
EXTT0=
EXTT1=
EXTT2=
EXTT3=
PLAYORDER=
